<svg width="40" height="40" viewBox="0 0 40 40" fill="none" xmlns="http://www.w3.org/2000/svg">
<path d="M26.6673 21.25H13.334C12.6507 21.25 12.084 20.6833 12.084 20C12.084 19.3167 12.6507 18.75 13.334 18.75H26.6673C27.3507 18.75 27.9173 19.3167 27.9173 20C27.9173 20.6833 27.3507 21.25 26.6673 21.25Z" fill="#333333"/>
<path d="M20 27.9166C19.3167 27.9166 18.75 27.3499 18.75 26.6666V13.3333C18.75 12.6499 19.3167 12.0833 20 12.0833C20.6833 12.0833 21.25 12.6499 21.25 13.3333V26.6666C21.25 27.3499 20.6833 27.9166 20 27.9166Z" fill="#333333"/>
<path d="M25.0007 37.9166H15.0007C5.95065 37.9166 2.08398 34.0499 2.08398 24.9999V14.9999C2.08398 5.94992 5.95065 2.08325 15.0007 2.08325H25.0007C34.0507 2.08325 37.9173 5.94992 37.9173 14.9999V24.9999C37.9173 34.0499 34.0507 37.9166 25.0007 37.9166ZM15.0007 4.58325C7.31732 4.58325 4.58398 7.31659 4.58398 14.9999V24.9999C4.58398 32.6833 7.31732 35.4166 15.0007 35.4166H25.0007C32.684 35.4166 35.4173 32.6833 35.4173 24.9999V14.9999C35.4173 7.31659 32.684 4.58325 25.0007 4.58325H15.0007Z" fill="#333333"/>
</svg>
