<svg width="20" height="20" viewBox="0 0 20 20" fill="none" xmlns="http://www.w3.org/2000/svg">
<path fill-rule="evenodd" clip-rule="evenodd" d="M1.25 10.0002C1.25 9.83443 1.31585 9.67546 1.43306 9.55825C1.55027 9.44103 1.70924 9.37519 1.875 9.37519L16.6163 9.37519L12.6825 5.44269C12.5651 5.32533 12.4992 5.16616 12.4992 5.00019C12.4992 4.83422 12.5651 4.67505 12.6825 4.55769C12.7999 4.44033 12.959 4.3744 13.125 4.3744C13.291 4.3744 13.4501 4.44033 13.5675 4.55769L18.5675 9.55769C18.6257 9.61574 18.6719 9.68471 18.7034 9.76065C18.7349 9.83658 18.7511 9.91798 18.7511 10.0002C18.7511 10.0824 18.7349 10.1638 18.7034 10.2397C18.6719 10.3157 18.6257 10.3846 18.5675 10.4427L13.5675 15.4427C13.4501 15.56 13.291 15.626 13.125 15.626C12.959 15.626 12.7999 15.56 12.6825 15.4427C12.5651 15.3253 12.4992 15.1662 12.4992 15.0002C12.4992 14.8342 12.5651 14.675 12.6825 14.5577L16.6163 10.6252L1.875 10.6252C1.70924 10.6252 1.55027 10.5593 1.43306 10.4421C1.31585 10.3249 1.25 10.1659 1.25 10.0002Z" fill="white"/>
</svg>
