<svg width="18" height="34" viewBox="0 0 18 34" fill="none" xmlns="http://www.w3.org/2000/svg">
<path d="M15.6792 0.403032L0.418049 15.9748C0.150011 16.2483 0 16.6151 0 16.9971C0 17.379 0.150011 17.7459 0.418049 18.0194L15.6792 33.597C15.804 33.7245 15.9533 33.8259 16.1182 33.8951C16.2831 33.9643 16.4603 34 16.6392 34C16.8182 34 16.9954 33.9643 17.1603 33.8951C17.3252 33.8259 17.4745 33.7245 17.5993 33.597C17.8562 33.3354 18 32.9843 18 32.6186C18 32.253 17.8562 31.9018 17.5993 31.6402L3.24822 16.9971L17.5993 2.35682C17.8553 2.09538 17.9986 1.74487 17.9986 1.37993C17.9986 1.01499 17.8553 0.664471 17.5993 0.403032C17.4745 0.275484 17.3252 0.174107 17.1603 0.104885C16.9954 0.0356633 16.8182 0 16.6392 0C16.4603 0 16.2831 0.0356633 16.1182 0.104885C15.9533 0.174107 15.804 0.275484 15.6792 0.403032Z" fill="#333333"/>
</svg>
