<svg width="17" height="18" viewBox="0 0 17 18" fill="none" xmlns="http://www.w3.org/2000/svg">
<path d="M13.3944 13.4749H4.97348C4.19069 13.4749 3.43953 13.1481 2.90976 12.58C2.37999 12.012 2.11116 11.2494 2.17442 10.479L2.8307 2.72851C2.85442 2.48728 2.76744 2.25383 2.60139 2.07485C2.43534 1.89588 2.20604 1.80249 1.96093 1.80249H0.593023C0.268837 1.80249 0 1.53792 0 1.21887C0 0.899828 0.268837 0.635254 0.593023 0.635254H1.96884C2.54605 0.635254 3.09162 0.876481 3.47907 1.28891C3.69255 1.52235 3.85069 1.79472 3.93767 2.0982H13.8135C14.6121 2.0982 15.3474 2.40946 15.8851 2.96973C16.4149 3.53779 16.6837 4.27704 16.6205 5.06299L16.1935 10.8992C16.1065 12.3232 14.8414 13.4749 13.3944 13.4749ZM3.97721 3.25765L3.36047 10.5723C3.32093 11.0237 3.47116 11.4517 3.77953 11.7863C4.08791 12.1209 4.51488 12.2999 4.97348 12.2999H13.3944C14.2167 12.2999 14.96 11.6151 15.0233 10.8058L15.4502 4.96961C15.4819 4.5105 15.3316 4.07473 15.0233 3.75568C14.7149 3.42886 14.2879 3.24986 13.8214 3.24986H3.97721V3.25765Z" fill="white"/>
<path d="M11.8607 17.3658C10.9909 17.3658 10.2793 16.6655 10.2793 15.8095C10.2793 14.9535 10.9909 14.2532 11.8607 14.2532C12.7305 14.2532 13.4421 14.9535 13.4421 15.8095C13.4421 16.6655 12.7305 17.3658 11.8607 17.3658ZM11.8607 15.4204C11.6393 15.4204 11.4653 15.5916 11.4653 15.8095C11.4653 16.0274 11.6393 16.1986 11.8607 16.1986C12.0821 16.1986 12.256 16.0274 12.256 15.8095C12.256 15.5916 12.0821 15.4204 11.8607 15.4204Z" fill="white"/>
<path d="M5.53452 17.3656C4.66475 17.3656 3.95312 16.6652 3.95312 15.8092C3.95312 14.9533 4.66475 14.2529 5.53452 14.2529C6.40429 14.2529 7.11592 14.9533 7.11592 15.8092C7.11592 16.6652 6.40429 17.3656 5.53452 17.3656ZM5.53452 15.4202C5.31313 15.4202 5.13917 15.5914 5.13917 15.8092C5.13917 16.0271 5.31313 16.1983 5.53452 16.1983C5.75592 16.1983 5.92987 16.0271 5.92987 15.8092C5.92987 15.5914 5.75592 15.4202 5.53452 15.4202Z" fill="white"/>
<path d="M15.6166 6.47144H6.12818C5.80399 6.47144 5.53516 6.20686 5.53516 5.88782C5.53516 5.56877 5.80399 5.3042 6.12818 5.3042H15.6166C15.9407 5.3042 16.2096 5.56877 16.2096 5.88782C16.2096 6.20686 15.9407 6.47144 15.6166 6.47144Z" fill="white"/>
</svg>
