<svg width="29" height="29" viewBox="0 0 29 29" fill="none" xmlns="http://www.w3.org/2000/svg">
<path d="M14.4998 27.4894C7.33442 27.4894 1.51025 21.6653 1.51025 14.4998C1.51025 7.33442 7.33442 1.51025 14.4998 1.51025C21.6653 1.51025 27.4894 7.33442 27.4894 14.4998C27.4894 21.6653 21.6653 27.4894 14.4998 27.4894ZM14.4998 3.32275C8.33734 3.32275 3.32275 8.33734 3.32275 14.4998C3.32275 20.6623 8.33734 25.6769 14.4998 25.6769C20.6623 25.6769 25.6769 20.6623 25.6769 14.4998C25.6769 8.33734 20.6623 3.32275 14.4998 3.32275Z" fill="white"/>
<path d="M11.0805 18.8259C10.8509 18.8259 10.6213 18.7413 10.4401 18.5601C10.0896 18.2096 10.0896 17.6296 10.4401 17.2792L17.2792 10.4401C17.6296 10.0896 18.2096 10.0896 18.5601 10.4401C18.9105 10.7905 18.9105 11.3705 18.5601 11.7209L11.7209 18.5601C11.5517 18.7413 11.3101 18.8259 11.0805 18.8259Z" fill="white"/>
<path d="M17.9196 18.8259C17.6901 18.8259 17.4605 18.7413 17.2792 18.5601L10.4401 11.7209C10.0896 11.3705 10.0896 10.7905 10.4401 10.4401C10.7905 10.0896 11.3705 10.0896 11.7209 10.4401L18.5601 17.2792C18.9105 17.6296 18.9105 18.2096 18.5601 18.5601C18.3788 18.7413 18.1492 18.8259 17.9196 18.8259Z" fill="white"/>
</svg>
