<svg width="20" height="20" viewBox="0 0 20 20" fill="none" xmlns="http://www.w3.org/2000/svg">
<path d="M10 0C8.02219 0 6.08879 0.58649 4.4443 1.6853C2.79981 2.78412 1.51809 4.3459 0.761209 6.17316C0.00433284 8.00042 -0.1937 10.0111 0.192152 11.9509C0.578004 13.8907 1.53041 15.6725 2.92894 17.0711C4.32746 18.4696 6.10929 19.422 8.0491 19.8078C9.98891 20.1937 11.9996 19.9957 13.8268 19.2388C15.6541 18.4819 17.2159 17.2002 18.3147 15.5557C19.4135 13.9112 20 11.9778 20 10C19.9972 7.34869 18.9427 4.80678 17.068 2.93202C15.1932 1.05727 12.6513 0.00279983 10 0ZM10.7692 18.426V12.3077H13.0769C13.2809 12.3077 13.4766 12.2266 13.6209 12.0824C13.7651 11.9381 13.8462 11.7425 13.8462 11.5385C13.8462 11.3344 13.7651 11.1388 13.6209 10.9945C13.4766 10.8503 13.2809 10.7692 13.0769 10.7692H10.7692V8.46154C10.7692 8.05351 10.9313 7.6622 11.2198 7.37368C11.5084 7.08516 11.8997 6.92308 12.3077 6.92308H13.8462C14.0502 6.92308 14.2458 6.84203 14.3901 6.69777C14.5343 6.55351 14.6154 6.35786 14.6154 6.15384C14.6154 5.94983 14.5343 5.75418 14.3901 5.60992C14.2458 5.46566 14.0502 5.38461 13.8462 5.38461H12.3077C11.4916 5.38461 10.709 5.70879 10.132 6.28582C9.55495 6.86286 9.23077 7.64549 9.23077 8.46154V10.7692H6.92308C6.71907 10.7692 6.52341 10.8503 6.37915 10.9945C6.23489 11.1388 6.15385 11.3344 6.15385 11.5385C6.15385 11.7425 6.23489 11.9381 6.37915 12.0824C6.52341 12.2266 6.71907 12.3077 6.92308 12.3077H9.23077V18.426C7.06231 18.228 5.05362 17.2017 3.62254 15.5605C2.19146 13.9194 1.44815 11.7897 1.54723 9.61444C1.64631 7.43922 2.58015 5.38592 4.1545 3.88164C5.72885 2.37736 7.82252 1.53792 10 1.53792C12.1775 1.53792 14.2712 2.37736 15.8455 3.88164C17.4199 5.38592 18.3537 7.43922 18.4528 9.61444C18.5519 11.7897 17.8085 13.9194 16.3775 15.5605C14.9464 17.2017 12.9377 18.228 10.7692 18.426Z" fill="#E5E5E5"/>
</svg>
