<svg width="14" height="13" viewBox="0 0 14 13" fill="none" xmlns="http://www.w3.org/2000/svg">
<path d="M6.17387 10.645C5.71852 11.1253 5.91092 11.9165 6.56976 11.9793C6.71229 11.9929 6.85577 12 7 12C8.60853 12 10.124 11.1158 11.2673 10.2156C12.4308 9.29946 13.3276 8.27151 13.7166 7.79811C14.0945 7.33822 14.0945 6.66178 13.7166 6.20189C13.4981 5.936 13.1194 5.49518 12.6233 4.99748C12.3117 4.68489 11.806 4.70448 11.5024 5.02479C11.1881 5.35631 11.211 5.88086 11.5335 6.20438C11.83 6.50177 12.081 6.77759 12.2743 7C11.8543 7.48336 11.1615 8.21904 10.322 8.88002C9.26605 9.71148 8.09242 10.3333 7 10.3333C6.9966 10.3333 6.9932 10.3333 6.9898 10.3333C6.68645 10.3322 6.38259 10.4249 6.17387 10.645Z" fill="#222222"/>
<path d="M9.64372 4.62817C8.77719 4.05498 7.86324 3.66667 7 3.66667C5.90758 3.66667 4.73395 4.28852 3.67799 5.11998C2.83853 5.78096 2.14572 6.51664 1.72573 7C2.14572 7.48336 2.83853 8.21904 3.67799 8.88002C4.05851 9.17964 4.45432 9.45204 4.85609 9.67794L3.69701 10.9005C3.35361 10.6835 3.03054 10.4501 2.73273 10.2156C1.56923 9.29946 0.672402 8.27151 0.283415 7.79811C-0.0944716 7.33822 -0.0944716 6.66178 0.283415 6.20189C0.672402 5.72849 1.56923 4.70054 2.73273 3.78441C3.87597 2.88424 5.39147 2 7 2C8.39187 2 9.71407 2.66207 10.7857 3.42365L9.64372 4.62817Z" fill="#222222"/>
<path d="M1.2793 12.1313L12.1064 1.30427" stroke="#333333" stroke-width="1.7" stroke-linecap="round"/>
<circle cx="6.5" cy="7.5" r="1.5" fill="#222222"/>
</svg>
