<svg width="22" height="20" viewBox="0 0 22 20" fill="none" xmlns="http://www.w3.org/2000/svg">
<path d="M11 19.6842C10.6828 19.6842 10.3758 19.6434 10.12 19.5516C6.21116 18.2155 0 13.473 0 6.46621C0 2.89654 2.89581 0 6.45674 0C8.18605 0 9.80279 0.673139 11 1.87663C12.1972 0.673139 13.814 0 15.5433 0C19.1042 0 22 2.90674 22 6.46621C22 13.4832 15.7888 18.2155 11.88 19.5516C11.6242 19.6434 11.3172 19.6842 11 19.6842ZM6.45674 1.52986C3.74512 1.52986 1.53488 3.74306 1.53488 6.46621C1.53488 13.4322 8.25767 17.3078 10.6214 18.1136C10.8056 18.1747 11.2047 18.1747 11.3888 18.1136C13.7423 17.3078 20.4753 13.4424 20.4753 6.46621C20.4753 3.74306 18.2651 1.52986 15.5535 1.52986C13.9981 1.52986 12.5553 2.25399 11.6242 3.50848C11.3377 3.89605 10.6828 3.89605 10.3963 3.50848C9.44465 2.2438 8.01209 1.52986 6.45674 1.52986Z" fill="#333333"/>
</svg>
