<svg width="20" height="21" viewBox="0 0 20 21" fill="none" xmlns="http://www.w3.org/2000/svg">
<path d="M10 5.6777C9.10805 5.6777 8.23612 5.94219 7.49449 6.43774C6.75285 6.93328 6.17482 7.63761 5.83348 8.46167C5.49215 9.28573 5.40284 10.1925 5.57685 11.0673C5.75086 11.9421 6.18038 12.7457 6.81109 13.3764C7.44179 14.0071 8.24537 14.4366 9.12018 14.6106C9.995 14.7847 10.9018 14.6954 11.7258 14.354C12.5499 14.0127 13.2542 13.4346 13.7498 12.693C14.2453 11.9514 14.5098 11.0795 14.5098 10.1875C14.5082 8.9919 14.0326 7.84572 13.1872 7.00031C12.3418 6.15489 11.1956 5.67925 10 5.6777ZM10 13.5208C9.34073 13.5208 8.69626 13.3253 8.1481 12.9591C7.59994 12.5928 7.17269 12.0722 6.9204 11.4631C6.66811 10.854 6.6021 10.1838 6.73072 9.5372C6.85933 8.8906 7.1768 8.29665 7.64298 7.83048C8.10915 7.3643 8.7031 7.04683 9.3497 6.91822C9.9963 6.7896 10.6665 6.85561 11.2756 7.1079C11.8847 7.36019 12.4053 7.78744 12.7716 8.3356C13.1378 8.88376 13.3333 9.52823 13.3333 10.1875C13.3333 11.0716 12.9821 11.9194 12.357 12.5445C11.7319 13.1696 10.8841 13.5208 10 13.5208ZM14.7059 0.1875H5.29412C3.89051 0.189057 2.54483 0.747329 1.55233 1.73983C0.559829 2.73233 0.00155697 4.07801 0 5.48162V14.8934C0.00155697 16.297 0.559829 17.6427 1.55233 18.6352C2.54483 19.6277 3.89051 20.1859 5.29412 20.1875H14.7059C16.1095 20.1859 17.4552 19.6277 18.4477 18.6352C19.4402 17.6427 19.9984 16.297 20 14.8934V5.48162C19.9984 4.07801 19.4402 2.73233 18.4477 1.73983C17.4552 0.747329 16.1095 0.189057 14.7059 0.1875ZM18.8235 14.8934C18.8235 15.9855 18.3897 17.0328 17.6175 17.805C16.8453 18.5772 15.798 19.011 14.7059 19.011H5.29412C4.20205 19.011 3.15471 18.5772 2.3825 17.805C1.61029 17.0328 1.17647 15.9855 1.17647 14.8934V5.48162C1.17647 4.38955 1.61029 3.34221 2.3825 2.57C3.15471 1.79779 4.20205 1.36397 5.29412 1.36397H14.7059C15.798 1.36397 16.8453 1.79779 17.6175 2.57C18.3897 3.34221 18.8235 4.38955 18.8235 5.48162V14.8934ZM16.0784 5.08946C16.0784 5.28336 16.0209 5.47291 15.9132 5.63414C15.8055 5.79536 15.6524 5.92102 15.4732 5.99522C15.2941 6.06943 15.097 6.08884 14.9068 6.05102C14.7166 6.01319 14.5419 5.91981 14.4048 5.7827C14.2677 5.64559 14.1743 5.4709 14.1365 5.28073C14.0987 5.09055 14.1181 4.89342 14.1923 4.71428C14.2665 4.53514 14.3921 4.38202 14.5534 4.27429C14.7146 4.16657 14.9041 4.10907 15.098 4.10907C15.3581 4.10907 15.6074 4.21236 15.7913 4.39622C15.9751 4.58008 16.0784 4.82944 16.0784 5.08946Z" fill="#E5E5E5"/>
</svg>
