<svg width="13" height="18" viewBox="0 0 13 18" fill="none" xmlns="http://www.w3.org/2000/svg">
            <path d="M5.88619 8.02511L5.92066 8.0263L5.94835 8.02085C5.94997 8.02072 5.95251 8.02053 5.95607 8.02033C5.96711 8.01972 5.98266 8.01929 6.00215 8.01929C6.04113 8.01929 6.0884 8.02099 6.13382 8.02443L6.1519 8.0258L6.17001 8.02498C7.91895 7.94595 9.29836 6.53043 9.30731 4.7853H9.30732V4.78376C9.30732 2.99094 7.8202 1.53425 6.01027 1.53425C4.20035 1.53425 2.71323 2.99094 2.71323 4.78376C2.71323 6.54849 4.1128 7.96372 5.88619 8.02511ZM6.14023 8.62428H6.14008H6.13994H6.1398H6.13966H6.13952H6.13937H6.13923H6.13909H6.13895H6.13881H6.13867H6.13853H6.13839H6.13825H6.13811H6.13797H6.13783H6.13769H6.13755H6.13741H6.13727H6.13713H6.13699H6.13685H6.13671H6.13658H6.13644H6.1363H6.13616H6.13602H6.13589H6.13575H6.13561H6.13548H6.13534H6.1352H6.13507H6.13493H6.13479H6.13466H6.13452H6.13439H6.13425H6.13411H6.13398H6.13384H6.13371H6.13357H6.13344H6.13331H6.13317H6.13304H6.1329H6.13277H6.13264H6.1325H6.13237H6.13224H6.1321H6.13197H6.13184H6.1317H6.13157H6.13144H6.13131H6.13117H6.13104H6.13091H6.13078H6.13065H6.13052H6.13038H6.13025H6.13012H6.12999H6.12986H6.12973H6.1296H6.12947H6.12934H6.12921H6.12908H6.12895H6.12882H6.12869H6.12856H6.12843H6.1283H6.12817H6.12804H6.12791H6.12778H6.12766H6.12753H6.1274H6.12727H6.12714H6.12701H6.12689H6.12676H6.12663H6.1265H6.12638H6.12625H6.12612H6.12599H6.12587H6.12574H6.12561H6.12549H6.12536H6.12523H6.12511H6.12498H6.12485H6.12473H6.1246H6.12448H6.12435H6.12422H6.1241H6.12397H6.12385H6.12372H6.1236H6.12347H6.12335H6.12322H6.1231H6.12297H6.12285H6.12272H6.1226H6.12247H6.12235H6.12222H6.1221H6.12198H6.12185H6.12173H6.1216H6.12148H6.12136H6.12123H6.12111H6.12099H6.12086H6.12074H6.12062H6.12049H6.12037H6.12025H6.12013H6.12H6.11988H6.11976H6.11963H6.11951H6.11939H6.11927H6.11915H6.11902H6.1189H6.11878H6.11866H6.11853H6.11841H6.11829H6.11817H6.11805H6.11793H6.1178H6.11768H6.11756H6.11744H6.11732H6.1172H6.11708H6.11696H6.11683H6.11671H6.11659H6.11647H6.11635H6.11623H6.11611H6.11599H6.11587H6.11575H6.11563H6.11551H6.11539H6.11526H6.11514H6.11502H6.1149H6.11478H6.11466H6.11454H6.11442H6.1143H6.11418H6.11406H6.11394H6.11382H6.1137H6.11358H6.11346H6.11334H6.11322H6.1131H6.11298H6.11286H6.11274H6.11263H6.11251H6.11239H6.11227H6.11215H6.11203H6.11191H6.11179H6.11167H6.11155H6.11143H6.11131H6.11119H6.11107H6.11095H6.11083H6.11071H6.1106H6.11048H6.11036H6.11024H6.11012H6.11H6.10988H6.10976H6.10964H6.10952H6.1094H6.10929H6.10917H6.10905H6.10893H6.10881H6.10869H6.10857H6.10845H6.10833H6.10821H6.1081H6.10798H6.10786H6.10774H6.10762H6.1075H6.10738H6.10726H6.10714H6.10702H6.10691H6.10679H6.10667H6.10655H6.10643H6.10631H6.10619H6.10607H6.10595H6.10583H6.10572H6.1056H6.10548H6.10536H6.10524H6.10512H6.105H6.10488H6.10476H6.10464H6.10452H6.1044H6.10429H6.10417H6.10405H6.10393H6.10381H6.10369H6.10357H6.10345H6.10333H6.10321H6.10309H6.10297H6.10285H6.10273H6.10261H6.10249H6.10237H6.10225H6.10213H6.10201H6.10189H6.10177H6.10166H6.10153H6.10142H6.10129H6.10117H6.10105H6.10093H6.10081H6.10069H6.10057H6.10045H6.10033H6.10021H6.10009H6.09997H6.09985H6.09973H6.09961H6.09949H6.09937H6.09925H6.09913H6.09901H6.09889H6.09886C6.03773 8.61608 5.97246 8.61672 5.91361 8.6236C3.72642 8.54458 2.09492 6.85388 2.09492 4.78376C2.09492 2.66788 3.84851 0.935254 6.01027 0.935254C8.17185 0.935254 9.92532 2.66757 9.92563 4.78321C9.91782 6.86358 8.26433 8.55504 6.15975 8.62428H6.15974H6.15969H6.15964H6.1596H6.15955H6.1595H6.15945H6.15941H6.15936H6.15931H6.15926H6.15921H6.15917H6.15912H6.15907H6.15902H6.15898H6.15893H6.15888H6.15883H6.15879H6.15874H6.15869H6.15864H6.1586H6.15855H6.1585H6.15845H6.15841H6.15836H6.15831H6.15826H6.15822H6.15817H6.15812H6.15807H6.15803H6.15798H6.15793H6.15788H6.15784H6.15779H6.15774H6.15769H6.15764H6.1576H6.15755H6.1575H6.15745H6.15741H6.15736H6.15731H6.15726H6.15722H6.15717H6.15712H6.15707H6.15703H6.15698H6.15693H6.15688H6.15684H6.15679H6.15674H6.15669H6.15665H6.1566H6.15655H6.1565H6.15646H6.15641H6.15636H6.15631H6.15626H6.15622H6.15617H6.15612H6.15607H6.15603H6.15598H6.15593H6.15588H6.15584H6.15579H6.15574H6.15569H6.15565H6.1556H6.15555H6.1555H6.15546H6.15541H6.15536H6.15531H6.15527H6.15522H6.15517H6.15512H6.15507H6.15503H6.15498H6.15493H6.15488H6.15484H6.15479H6.15474H6.15469H6.15465H6.1546H6.15455H6.1545H6.15446H6.15441H6.15436H6.15431H6.15427H6.15422H6.15417H6.15412H6.15408H6.15403H6.15398H6.15393H6.15388H6.15384H6.15379H6.15374H6.15369H6.15365H6.1536H6.15355H6.1535H6.15346H6.15341H6.15336H6.15331H6.15327H6.15322H6.15317H6.15312H6.15308H6.15303H6.15298H6.15293H6.15289H6.15284H6.15279H6.15274H6.1527H6.15265H6.1526H6.15255H6.1525H6.15246H6.15241H6.15236H6.15231H6.15227H6.15222H6.15217H6.15212H6.15208H6.15203H6.15198H6.15193H6.15189H6.15184H6.15179H6.15174H6.1517H6.15165H6.1516H6.15155H6.15151H6.15146H6.15141H6.15136H6.15132H6.15127H6.15122H6.15117H6.15112H6.15108H6.15103H6.15098H6.15093H6.15089H6.15084H6.15079H6.15074H6.1507H6.15065H6.1506H6.15055H6.15051H6.15046H6.15041H6.15036H6.15032H6.15027H6.15022H6.15017H6.15013H6.15008H6.15003H6.14998H6.14994H6.14989H6.14984H6.14979H6.14974H6.1497H6.14965H6.1496H6.14955H6.14951H6.14946H6.14941H6.14936H6.14932H6.14927H6.14922H6.14917H6.14913H6.14908H6.14903H6.14898H6.14894H6.14889H6.14884H6.14879H6.14875H6.1487H6.14865H6.1486H6.14855H6.14851H6.14846H6.14841H6.14836H6.14832H6.14827H6.14822H6.14817H6.14813H6.14808H6.14803H6.14798H6.14794H6.14789H6.14784H6.14779H6.14775H6.1477H6.14765H6.1476H6.14756H6.14751H6.14746H6.14741H6.14737H6.14732H6.14727H6.14722H6.14717H6.14713H6.14708H6.14703H6.14698H6.14694H6.14689H6.14684H6.14679H6.14675H6.1467H6.14665H6.1466H6.14656H6.14651H6.14646H6.14641H6.14637H6.14632H6.14627H6.14622H6.14618H6.14613H6.14608H6.14603H6.14599H6.14594H6.14589H6.14584H6.14579H6.14575H6.1457H6.14565H6.1456H6.14556H6.14551H6.14546H6.14541H6.14537H6.14532H6.14527H6.14522H6.14518H6.14513H6.14508H6.14503H6.14499H6.14494H6.14489H6.14484H6.1448H6.14475H6.1447H6.14465H6.14461H6.14456H6.14451H6.14446H6.14441H6.14437H6.14432H6.14427H6.14422H6.14418H6.14413H6.14408H6.14403H6.14399H6.14394H6.14389H6.14384H6.1438H6.14375H6.1437H6.14365H6.14361H6.14356H6.14351H6.14346H6.14342H6.14337H6.14332H6.14327H6.14323H6.14318H6.14313H6.14308H6.14303H6.14299H6.14294H6.14289H6.14284H6.1428H6.14275H6.1427H6.14265H6.14261H6.14256H6.14251H6.14246H6.14242H6.14237H6.14232H6.14227H6.14223H6.14218H6.14213H6.14208H6.14204H6.14199H6.14194H6.14189H6.14184H6.1418H6.14175H6.1417H6.14165H6.14161H6.14156H6.14151H6.14146H6.14142H6.14137H6.14132H6.14127H6.14123H6.14118H6.14113H6.14108H6.14104H6.14099H6.14094H6.14089H6.14085H6.1408H6.14075H6.1407H6.14066H6.14061H6.14056H6.14051H6.14046H6.14042H6.14037H6.14032H6.14027H6.14023Z" stroke="white" stroke-width="0.6"/>
            <path d="M6.1484 17.6608C4.55648 17.6608 2.95643 17.2612 1.74624 16.4618C0.617277 15.7265 0 14.7193 0 13.6242C0 12.5292 0.617277 11.514 1.74624 10.7706C4.18286 9.17997 8.13019 9.17997 10.5506 10.7706C11.6714 11.506 12.2968 12.5132 12.2968 13.6082C12.2968 14.7033 11.6795 15.7185 10.5506 16.4618C9.33225 17.2612 7.74033 17.6608 6.1484 17.6608ZM2.42038 11.7778C1.64066 12.2894 1.21831 12.9448 1.21831 13.6322C1.21831 14.3117 1.64878 14.9671 2.42038 15.4707C4.44277 16.8056 7.85404 16.8056 9.87643 15.4707C10.6561 14.9591 11.0785 14.3037 11.0785 13.6162C11.0785 12.9368 10.648 12.2814 9.87643 11.7778C7.85404 10.4509 4.44277 10.4509 2.42038 11.7778Z" fill="white"/>
        </svg>