    <svg width="20" height="18" viewBox="0 0 20 18" fill="none" xmlns="http://www.w3.org/2000/svg">
            <path d="M10.1299 17.3657C9.85593 17.3657 9.59081 17.331 9.36988 17.253C5.99407 16.1174 0.629883 12.0865 0.629883 6.13116C0.629883 3.09714 3.13081 0.635254 6.20616 0.635254C7.69965 0.635254 9.09593 1.20738 10.1299 2.23028C11.1638 1.20738 12.5601 0.635254 14.0536 0.635254C17.129 0.635254 19.6299 3.10581 19.6299 6.13116C19.6299 12.0952 14.2657 16.1174 10.8899 17.253C10.669 17.331 10.4038 17.3657 10.1299 17.3657ZM6.20616 1.93555C3.8643 1.93555 1.95546 3.81664 1.95546 6.13116C1.95546 12.0518 7.76151 15.3459 9.80291 16.0307C9.96198 16.0827 10.3066 16.0827 10.4657 16.0307C12.4983 15.3459 18.3131 12.0605 18.3131 6.13116C18.3131 3.81664 16.4043 1.93555 14.0624 1.93555C12.7192 1.93555 11.4731 2.55102 10.669 3.61726C10.4215 3.94667 9.85593 3.94667 9.60849 3.61726C8.78663 2.54235 7.54942 1.93555 6.20616 1.93555Z" fill="white"/>
        </svg>