<svg width="18" height="17" viewBox="0 0 18 17" fill="none" xmlns="http://www.w3.org/2000/svg">
<path d="M13.5881 17C12.6403 17 11.6421 16.7865 10.6104 16.3753C9.60391 15.9721 8.589 15.4186 7.59926 14.7465C6.61789 14.0665 5.67008 13.3074 4.7726 12.4772C3.8835 11.6312 3.07829 10.7377 2.36533 9.82047C1.64399 8.87163 1.06524 7.92279 0.65424 7.00558C0.21808 6.02512 0 5.07628 0 4.18279C0 3.56605 0.117428 2.98093 0.343896 2.43535C0.578751 1.87395 0.956198 1.35209 1.46785 0.901395C2.1137 0.300465 2.85182 0 3.64026 0C3.96738 0 4.30289 0.0711628 4.58807 0.197674C4.91519 0.34 5.19199 0.553488 5.39329 0.83814L7.33924 3.42372C7.51538 3.65302 7.64958 3.87442 7.74185 4.09581C7.85089 4.33302 7.9096 4.57023 7.9096 4.79954C7.9096 5.1 7.81733 5.39256 7.64119 5.6693C7.51538 5.88279 7.32246 6.11209 7.07922 6.3414L6.50885 6.90279C6.51724 6.92651 6.52563 6.94233 6.53402 6.95814C6.63467 7.12419 6.83597 7.40884 7.22181 7.83581C7.63281 8.2786 8.01864 8.68186 8.40447 9.05349C8.89935 9.51209 9.31035 9.87581 9.69618 10.1763C10.1743 10.5558 10.4846 10.7456 10.6692 10.8326L10.6524 10.8721L11.2647 10.3028C11.5247 10.0577 11.7763 9.87581 12.0196 9.75721C12.4809 9.48837 13.068 9.44093 13.6552 9.67023C13.8733 9.75721 14.1081 9.87581 14.3597 10.0419L17.1445 11.9079C17.4548 12.1056 17.6813 12.3586 17.8155 12.6591C17.9413 12.9595 18 13.2363 18 13.513C18 13.8926 17.9077 14.2721 17.7316 14.6279C17.5555 14.9837 17.3374 15.2921 17.0606 15.5767C16.5825 16.0749 16.0624 16.4307 15.4585 16.66C14.8798 16.8814 14.2507 17 13.5881 17ZM3.64026 1.18605C3.17894 1.18605 2.75117 1.37581 2.34017 1.75535C1.95433 2.09535 1.68593 2.46698 1.51817 2.87023C1.34203 3.2814 1.25815 3.71628 1.25815 4.18279C1.25815 4.91814 1.44268 5.71674 1.81174 6.53907C2.18919 7.37721 2.71761 8.24698 3.38863 9.11674C4.05965 9.98651 4.82293 10.8326 5.6617 11.6312C6.50047 12.414 7.40634 13.1414 8.33737 13.7819C9.24324 14.4065 10.1743 14.9126 11.0969 15.2763C12.5312 15.8535 13.8733 15.9879 14.9804 15.553C15.4082 15.387 15.7856 15.134 16.1295 14.7702C16.3225 14.5726 16.4734 14.3591 16.5993 14.106C16.6999 13.9084 16.7502 13.7028 16.7502 13.4972C16.7502 13.3707 16.7251 13.2442 16.658 13.1019C16.6328 13.0544 16.5825 12.9674 16.4231 12.8647L13.6384 10.9986C13.4706 10.8879 13.3197 10.8088 13.1771 10.7535C12.9925 10.6823 12.9171 10.6112 12.6319 10.7772C12.4641 10.8563 12.3131 10.9749 12.1454 11.133L11.5079 11.726C11.1808 12.0265 10.6775 12.0977 10.2917 11.9633L10.0652 11.8684C9.72134 11.6944 9.31873 11.4256 8.87418 11.0698C8.47158 10.7456 8.03541 10.366 7.50699 9.87581C7.09599 9.48046 6.685 9.0614 6.25722 8.59488C5.863 8.16 5.57782 7.78837 5.40168 7.48L5.30103 7.24279C5.2507 7.06093 5.23392 6.95814 5.23392 6.84744C5.23392 6.56279 5.34296 6.30977 5.55266 6.11209L6.18173 5.49535C6.34949 5.33721 6.4753 5.18698 6.55918 5.05256C6.62628 4.94977 6.65145 4.86279 6.65145 4.78372C6.65145 4.72047 6.62628 4.62558 6.58434 4.5307C6.52563 4.40419 6.43336 4.26186 6.31594 4.11163L4.36999 1.51814C4.28611 1.40744 4.18546 1.32837 4.05965 1.27302C3.92544 1.21767 3.78285 1.18605 3.64026 1.18605ZM10.6524 10.88L10.5182 11.4177L10.7446 10.8642C10.7027 10.8563 10.6692 10.8642 10.6524 10.88Z" fill="#333333"/>
</svg>
