<svg width="16" height="17" viewBox="0 0 16 17" fill="none" xmlns="http://www.w3.org/2000/svg">
<circle cx="7.99414" cy="5" r="4.15" stroke="#333333" stroke-opacity="0.9" stroke-width="1.7"/>
<path d="M3.49934 10.112C3.32472 10.1179 3.15715 10.1837 3.01886 10.2905C1.39736 11.5426 0.278284 13.3928 0.00721527 15.5022C-0.063179 16.05 0.391291 16.5 0.943575 16.5H15.0442C15.5965 16.5 16.051 16.05 15.9806 15.5022C15.7096 13.393 14.5907 11.5429 12.9694 10.2908C12.8312 10.1841 12.6637 10.1183 12.4892 10.1123C11.9781 10.0949 11.7187 10.2139 11.519 10.4397C11.1338 10.8752 11.3867 11.5824 11.8398 11.9468C12.6724 12.6166 13.3162 13.4977 13.6874 14.5H2.30043C2.67173 13.4975 3.31571 12.6162 4.14859 11.9464C4.60163 11.582 4.85474 10.875 4.46956 10.4395C4.26994 10.2138 4.01043 10.0947 3.49934 10.112Z" fill="#333333" fill-opacity="0.9"/>
</svg>
