<svg width="29" height="29" viewBox="0 0 29 29" fill="none" xmlns="http://www.w3.org/2000/svg">
<path d="M14.4998 27.4894C7.33442 27.4894 1.51025 21.6653 1.51025 14.4998C1.51025 7.33442 7.33442 1.51025 14.4998 1.51025C21.6653 1.51025 27.4894 7.33442 27.4894 14.4998C27.4894 21.6653 21.6653 27.4894 14.4998 27.4894ZM14.4998 3.32275C8.33734 3.32275 3.32275 8.33734 3.32275 14.4998C3.32275 20.6623 8.33734 25.6769 14.4998 25.6769C20.6623 25.6769 25.6769 20.6623 25.6769 14.4998C25.6769 8.33734 20.6623 3.32275 14.4998 3.32275Z" fill="white"/>
<path d="M12.7842 18.8258C12.5426 18.8258 12.313 18.7291 12.1438 18.5599L8.72424 15.1404C8.37382 14.7899 8.37382 14.2099 8.72424 13.8595C9.07465 13.5091 9.65465 13.5091 10.0051 13.8595L12.7842 16.6387L18.9951 10.4279C19.3455 10.0774 19.9255 10.0774 20.2759 10.4279C20.6263 10.7783 20.6263 11.3583 20.2759 11.7087L13.4247 18.5599C13.2555 18.7291 13.0259 18.8258 12.7842 18.8258Z" fill="white"/>
</svg>
