 <svg width="17" height="18" viewBox="0 0 17 18" fill="none" xmlns="http://www.w3.org/2000/svg">
            <path d="M7.69048 15.7723C3.44691 15.7723 0 12.3801 0 8.20378C0 4.02751 3.44691 0.635254 7.69048 0.635254C11.934 0.635254 15.381 4.02751 15.381 8.20378C15.381 12.3801 11.934 15.7723 7.69048 15.7723ZM7.69048 1.79964C4.10159 1.79964 1.18315 4.6718 1.18315 8.20378C1.18315 11.7358 4.10159 14.6079 7.69048 14.6079C11.2794 14.6079 14.1978 11.7358 14.1978 8.20378C14.1978 4.6718 11.2794 1.79964 7.69048 1.79964Z" fill="white"/>
            <path d="M14.8321 17.3658C14.7628 17.3658 14.6935 17.3574 14.6328 17.3491C14.2254 17.2992 13.4886 17.0331 13.0725 15.8439C12.8558 15.2202 12.9338 14.5965 13.2892 14.1225C13.6446 13.6484 14.2427 13.3823 14.9275 13.3823C15.8116 13.3823 16.5051 13.7067 16.8171 14.2805C17.1292 14.8543 17.0425 15.5861 16.5484 16.293C15.933 17.1828 15.2655 17.3658 14.8321 17.3658ZM14.3121 15.453C14.4594 15.8855 14.6674 16.1017 14.8061 16.1183C14.9448 16.135 15.2049 15.977 15.4736 15.6027C15.725 15.2451 15.7423 14.9873 15.6816 14.8709C15.6209 14.7545 15.3782 14.6297 14.9275 14.6297C14.6588 14.6297 14.4594 14.7129 14.3467 14.8543C14.2427 14.9957 14.2254 15.2119 14.3121 15.453Z" fill="white"/>
        </svg>