<svg width="20" height="19" viewBox="0 0 20 19" fill="none" xmlns="http://www.w3.org/2000/svg">
<path d="M19.9569 3.30169C19.9141 3.19821 19.8417 3.10973 19.7487 3.04744C19.6556 2.98515 19.5462 2.95184 19.4343 2.95173H16.4535C16.0764 2.27157 15.5255 1.70365 14.8572 1.30593C14.1888 0.908206 13.4269 0.694924 12.6492 0.687848C12.0844 0.680609 11.5238 0.786364 11.0004 0.998896C10.477 1.21143 10.0014 1.52645 9.60149 1.92544C9.18934 2.32981 8.86221 2.8125 8.63931 3.34513C8.41641 3.87775 8.30224 4.44957 8.30353 5.02696V5.84384C4.34173 4.90056 1.07797 1.64434 1.04023 1.61038C0.964219 1.53489 0.86834 1.48253 0.763742 1.45938C0.659145 1.43622 0.550124 1.44323 0.449353 1.47959C0.348581 1.51595 0.260198 1.58016 0.194476 1.66476C0.128754 1.74936 0.0883925 1.85088 0.0780834 1.95751C-0.322813 6.4117 0.966658 9.38588 2.11935 11.097C2.71524 11.9934 3.44979 12.7894 4.29551 13.4552C2.83436 15.2474 0.39597 16.1804 0.369558 16.1907C0.289002 16.2205 0.216288 16.2683 0.156924 16.3304C0.0975605 16.3925 0.0531052 16.4672 0.0269268 16.549C0.000748299 16.6308 -0.0064668 16.7175 0.00582859 16.8025C0.018124 16.8876 0.049607 16.9687 0.0978923 17.0397C0.191277 17.1793 1.11381 18.4216 4.34173 18.4216C10.9334 18.4216 16.4375 13.3279 16.9648 6.78713L19.8342 3.9186C19.9134 3.83943 19.9673 3.73856 19.9891 3.62875C20.011 3.51894 19.9997 3.40512 19.9569 3.30169ZM16.0158 6.13626C15.9183 6.23351 15.8596 6.36296 15.8507 6.50037C15.4659 12.5506 10.4099 17.2897 4.34173 17.2897C3.02113 17.2897 2.19481 17.0623 1.69487 16.8369C2.76079 16.3011 4.49832 15.2446 5.56706 13.642C5.60968 13.5779 5.63878 13.5057 5.65256 13.43C5.66635 13.3542 5.66454 13.2765 5.64724 13.2015C5.62976 13.126 5.59697 13.0549 5.55089 12.9925C5.5048 12.9302 5.44642 12.8781 5.37934 12.8392C5.36708 12.8317 4.14081 12.0978 3.02113 10.4131C1.70053 8.42278 1.06948 6.0108 1.13456 3.2234C2.53817 4.41194 5.43311 6.53338 8.77517 7.09087C8.85636 7.10459 8.93956 7.10043 9.01897 7.07869C9.09839 7.05694 9.1721 7.01813 9.23497 6.96496C9.29784 6.91179 9.34835 6.84554 9.38298 6.77084C9.41761 6.69614 9.43552 6.61478 9.43547 6.53244V5.02696C9.4346 4.59952 9.51919 4.17621 9.68426 3.78193C9.84932 3.38765 10.0915 3.03034 10.3967 2.731C10.6905 2.43766 11.0399 2.20596 11.4244 2.04948C11.809 1.89301 12.2209 1.81492 12.636 1.81979C13.9029 1.83583 15.0886 2.60932 15.5829 3.74409C15.6269 3.84504 15.6995 3.93093 15.7916 3.99125C15.8838 4.05157 15.9915 4.08369 16.1017 4.08367H18.0675L16.0158 6.13626Z" fill="#E5E5E5"/>
</svg>
