<svg width="48" height="48" viewBox="0 0 48 48" fill="none" xmlns="http://www.w3.org/2000/svg">
<path d="M17.4121 40.7797L18.036 36.8167L16.6462 36.7845H10.0098L14.6218 7.54139C14.6361 7.45311 14.6826 7.3708 14.7506 7.31234C14.8186 7.25389 14.9057 7.22168 14.9963 7.22168H26.1863C29.9012 7.22168 32.4649 7.99472 33.8034 9.52052C34.4309 10.2363 34.8305 10.9843 35.0238 11.8074C35.2266 12.6711 35.2302 13.703 35.0321 14.9616L35.0178 15.0535V15.8599L35.6453 16.2154C36.1738 16.4958 36.5937 16.8167 36.9158 17.1841C37.4527 17.7961 37.7998 18.5739 37.9465 19.4961C38.098 20.4445 38.0479 21.573 37.7998 22.8507C37.5135 24.3204 37.0506 25.6004 36.4255 26.6479C35.8505 27.613 35.118 28.4134 34.2484 29.0338C33.4181 29.6231 32.4315 30.0705 31.3161 30.3568C30.2352 30.6383 29.0029 30.7803 27.6513 30.7803H26.7804C26.1577 30.7803 25.5529 31.0046 25.0781 31.4066C24.6021 31.817 24.2871 32.3777 24.1905 32.9908L24.1249 33.3475L23.0226 40.3323L22.9725 40.5888C22.9594 40.6699 22.9367 40.7105 22.9033 40.7379C22.8735 40.763 22.8305 40.7797 22.7888 40.7797H17.4121Z" fill="#253B80"/>
<path d="M36.2399 15.1462C36.2065 15.3598 36.1683 15.5781 36.1254 15.8024C34.6497 23.3789 29.6011 25.9962 23.1531 25.9962H19.8701C19.0815 25.9962 18.417 26.5688 18.2942 27.3467L16.6133 38.007L16.1373 41.0287C16.0574 41.5393 16.451 41.9998 16.9664 41.9998H22.7892C23.4788 41.9998 24.0645 41.4988 24.1731 40.8188L24.2303 40.5229L25.3267 33.5656L25.3971 33.1838C25.5044 32.5014 26.0914 32.0004 26.7809 32.0004H27.6518C33.2933 32.0004 37.7096 29.7099 39.0004 23.0818C39.5396 20.313 39.2605 18.001 37.8337 16.375C37.4018 15.8847 36.8662 15.4779 36.2399 15.1462Z" fill="#179BD7"/>
<path d="M34.695 14.5309C34.4695 14.4653 34.2369 14.4056 33.9983 14.352C33.7585 14.2995 33.5128 14.2529 33.2599 14.2124C32.3747 14.0692 31.4048 14.0012 30.3657 14.0012H21.5951C21.3792 14.0012 21.174 14.0501 20.9903 14.1384C20.5858 14.3329 20.2852 14.7158 20.2124 15.1846L18.3467 27.0021L18.293 27.3469C18.4158 26.5691 19.0803 25.9964 19.8689 25.9964H23.1519C29.5999 25.9964 34.6485 23.3779 36.1242 15.8026C36.1683 15.5783 36.2053 15.36 36.2387 15.1465C35.8653 14.9484 35.4609 14.779 35.0254 14.6347C34.9181 14.5989 34.8071 14.5643 34.695 14.5309Z" fill="#222D65"/>
<path d="M20.9911 14.1396C21.176 14.0513 21.38 14.0024 21.5959 14.0024H30.3666C31.4056 14.0024 32.3755 14.0704 33.2607 14.2135C33.5136 14.2541 33.7593 14.3006 33.9991 14.3531C34.2377 14.4068 34.4703 14.4664 34.6958 14.5321C34.8079 14.5655 34.9189 14.6001 35.0275 14.6347C35.4629 14.779 35.8673 14.9496 36.2407 15.1464C36.6797 12.3466 36.2371 10.4402 34.7232 8.71399C33.0543 6.8136 30.0421 6 26.1876 6H14.9976C14.2103 6 13.5386 6.57262 13.417 7.35163L8.75606 36.8953C8.6642 37.4799 9.11514 38.0072 9.70446 38.0072H16.6129L18.3475 27.0021L20.2133 15.1846C20.286 14.7158 20.5867 14.3328 20.9911 14.1396Z" fill="#253B80"/>
</svg>
