<svg width="48" height="48" viewBox="0 0 48 48" fill="none" xmlns="http://www.w3.org/2000/svg">
<path d="M35.2372 29.3669C35.9337 29.6654 36.2322 30.6604 36.2322 31.1579C36.3317 31.9539 36.1327 32.3519 35.8342 32.3519C35.5357 32.3519 35.1377 32.0534 34.7397 31.3569C34.3417 30.6604 34.1427 29.9639 34.3417 29.5659C34.6402 29.3669 34.9387 29.2674 35.2372 29.3669Z" fill="#F28A1A"/>
<path d="M31.159 32.4517C31.557 32.4517 32.0545 32.6507 32.552 33.0487C33.348 33.7451 33.6465 34.5411 33.2485 35.1381C33.0495 35.4366 32.552 35.6356 32.154 35.6356C31.6565 35.6356 31.159 35.4366 30.8605 35.1381C30.0645 34.4416 29.8655 33.4466 30.363 32.8497C30.4625 32.6507 30.761 32.4517 31.159 32.4517Z" fill="#F28A1A"/>
<path d="M21.7057 40.3117C11.3579 40.3117 3 31.9538 3 21.7055C3 11.4571 11.3579 2.99976 21.7057 2.99976C32.0536 2.99976 40.4114 11.3576 40.4114 21.7055C40.4114 25.1879 39.4165 28.4714 37.8245 31.2573C37.725 31.3568 37.6255 31.3568 37.6255 31.1578C36.929 26.5809 34.143 24.0934 30.1631 23.2975C29.7651 23.198 29.7651 22.999 30.2626 22.999C31.5561 22.8995 33.2475 22.8995 34.2425 23.0985C34.342 22.601 34.342 22.1035 34.342 21.7055C34.342 14.9396 28.7701 9.36766 22.0042 9.36766C15.2383 9.36766 9.6664 14.9396 9.6664 21.7055C9.6664 28.4714 15.2383 34.0433 22.0042 34.0433H22.6012C22.4022 32.9488 22.3027 31.8543 22.4022 30.6603C22.4022 29.8644 22.6012 29.7649 22.8997 30.3618C24.5912 33.3468 27.0786 35.9338 31.8546 37.0282C35.735 37.9237 39.6155 38.9187 43.8939 44.1921C44.2919 44.6896 43.6949 45.1871 43.2969 44.7891C39.0185 41.0082 35.138 39.7147 31.5561 39.7147C27.0786 39.8142 24.3922 40.3117 21.7057 40.3117Z" fill="#F28A1A"/>
</svg>
